<?xml version="1.0" encoding="utf-8"?>
<!-- Generator: Adobe Illustrator 15.1.0, SVG Export Plug-In . SVG Version: 6.00 Build 0)  -->
<!DOCTYPE svg PUBLIC "-//W3C//DTD SVG 1.1//EN" "http://www.w3.org/Graphics/SVG/1.1/DTD/svg11.dtd">
<svg version="1.1" id="Layer_1" xmlns="http://www.w3.org/2000/svg" xmlns:xlink="http://www.w3.org/1999/xlink" x="0px" y="0px"
	 width="269px" height="91px" viewBox="0 0 269 91" enable-background="new 0 0 269 91" xml:space="preserve">
<g>
	<radialGradient id="SVGID_1_" cx="45.7422" cy="45.519" r="44.7427" gradientUnits="userSpaceOnUse">
		<stop  offset="0.7239" style="stop-color:#0D1829"/>
		<stop  offset="0.7359" style="stop-color:#131E31"/>
		<stop  offset="0.7626" style="stop-color:#1C2640"/>
		<stop  offset="0.792" style="stop-color:#232D4C"/>
		<stop  offset="0.8248" style="stop-color:#273156"/>
		<stop  offset="0.8628" style="stop-color:#2A345D"/>
		<stop  offset="0.9106" style="stop-color:#2B3661"/>
		<stop  offset="1" style="stop-color:#2C3662"/>
	</radialGradient>
	<path fill="url(#SVGID_1_)" d="M84.696,45.52h-5.789c0,4.596-0.928,8.943-2.604,12.907c-2.513,5.945-6.726,11.02-12.022,14.598
		c-5.3,3.576-11.65,5.657-18.539,5.66c-4.595-0.002-8.943-0.929-12.908-2.604c-5.944-2.513-11.02-6.727-14.596-12.021
		c-3.577-5.301-5.659-11.65-5.661-18.539c0-4.595,0.928-8.943,2.604-12.908c2.513-5.944,6.726-11.02,12.022-14.597
		c5.3-3.577,11.65-5.658,18.539-5.66c4.595,0,8.943,0.927,12.908,2.603c5.944,2.513,11.019,6.726,14.597,12.022
		c3.576,5.3,5.658,11.65,5.661,18.539H84.696h5.789c0.001-6.162-1.252-12.061-3.518-17.418c-3.401-8.037-9.067-14.856-16.205-19.68
		c-7.134-4.824-15.773-7.647-25.02-7.645C39.58,0.775,33.681,2.028,28.325,4.295c-8.037,3.4-14.857,9.066-19.68,16.204
		C3.821,27.633,0.998,36.272,1,45.52c0,6.161,1.252,12.062,3.518,17.417c3.401,8.038,9.066,14.857,16.205,19.682
		c7.134,4.823,15.773,7.646,25.02,7.644c6.162,0.001,12.062-1.252,17.417-3.52c8.038-3.399,14.856-9.064,19.68-16.203
		c4.823-7.133,7.647-15.772,7.645-25.02H84.696z"/>
</g>
<g>
	
		<radialGradient id="SVGID_2_" cx="-20.3936" cy="-35.6992" r="0.6433" gradientTransform="matrix(51.9214 0 0 -51.9214 1104.625 -1808.0625)" gradientUnits="userSpaceOnUse">
		<stop  offset="0" style="stop-color:#505B78"/>
		<stop  offset="0.6748" style="stop-color:#505B78"/>
		<stop  offset="0.7163" style="stop-color:#5B6687"/>
		<stop  offset="0.7764" style="stop-color:#667195"/>
		<stop  offset="0.8529" style="stop-color:#6C789E"/>
		<stop  offset="1" style="stop-color:#6E7BA1"/>
	</radialGradient>
	<path fill="url(#SVGID_2_)" d="M73.349,45.52h-5.789c-0.001,3.028-0.611,5.884-1.712,8.49c-1.651,3.908-4.425,7.251-7.912,9.604
		c-3.489,2.354-7.655,3.721-12.194,3.724c-3.029-0.001-5.883-0.61-8.491-1.713c-3.908-1.651-7.251-4.426-9.605-7.911
		c-2.353-3.488-3.72-7.655-3.723-12.194c0-3.028,0.611-5.884,1.712-8.492c1.652-3.907,4.426-7.251,7.912-9.604
		c3.489-2.353,7.656-3.72,12.195-3.722c3.028,0.001,5.884,0.61,8.491,1.711c3.908,1.652,7.25,4.426,9.604,7.911
		c2.354,3.49,3.721,7.657,3.723,12.195H73.349h5.789c0.001-4.595-0.934-9.002-2.626-13.001c-2.539-6-6.766-11.088-12.093-14.688
		c-5.322-3.6-11.779-5.709-18.676-5.708c-4.595-0.001-9.002,0.935-13.001,2.627c-6,2.539-11.088,6.766-14.688,12.093
		c-3.6,5.324-5.709,11.779-5.707,18.676c0,4.596,0.935,9.003,2.627,13c2.539,6.001,6.766,11.088,12.093,14.688
		c5.323,3.601,11.779,5.71,18.676,5.707c4.595,0.002,9.002-0.935,13-2.627c6-2.539,11.088-6.766,14.688-12.093
		c3.6-5.323,5.709-11.78,5.707-18.676H73.349z"/>
</g>
<g>
	<path fill="#B2B9CE" d="M61.931,45.52h-5.789c0,1.452-0.291,2.805-0.814,4.047c-0.785,1.857-2.112,3.457-3.775,4.58
		c-1.667,1.12-3.636,1.769-5.81,1.771c-1.452-0.001-2.805-0.291-4.046-0.815c-1.859-0.784-3.459-2.11-4.581-3.773
		c-1.122-1.667-1.77-3.636-1.772-5.81c0-1.453,0.291-2.805,0.814-4.046c0.785-1.859,2.112-3.458,3.774-4.58
		c1.667-1.123,3.636-1.771,5.811-1.773c1.452,0.001,2.805,0.292,4.046,0.816c1.859,0.785,3.458,2.111,4.581,3.773
		c1.122,1.667,1.771,3.637,1.772,5.811H61.931h5.789c0-3.02-0.615-5.925-1.729-8.557c-1.672-3.952-4.452-7.295-7.956-9.663
		c-3.5-2.369-7.761-3.759-12.292-3.757c-3.019-0.001-5.924,0.615-8.556,1.729c-3.952,1.672-7.296,4.451-9.665,7.956
		c-2.369,3.5-3.76,7.76-3.757,12.292c-0.001,3.019,0.614,5.923,1.729,8.556c1.673,3.952,4.451,7.295,7.956,9.665
		c3.5,2.367,7.76,3.758,12.292,3.756c3.018,0.001,5.924-0.615,8.556-1.73c3.952-1.672,7.296-4.45,9.664-7.955
		c2.369-3.5,3.76-7.76,3.757-12.291H61.931z"/>
</g>
<polygon fill="#FFFFFF" points="40.984,45.673 99.862,69.068 99.659,21.132 "/>
<g>
	<g>
		<path d="M106.007,25.383c1.367,0,2.566-0.347,3.597-1.041c1.03-0.694,1.796-1.628,2.297-2.803h2.283
			c-0.636,1.811-1.686,3.236-3.15,4.277c-1.56,1.117-3.4,1.676-5.519,1.676c-2.794,0-5.057-0.954-6.791-2.861
			c-1.638-1.829-2.456-4.142-2.456-6.934c0-2.793,0.818-5.105,2.456-6.936c1.734-1.908,3.997-2.861,6.791-2.861
			c2.119,0,3.959,0.56,5.519,1.677c1.464,1.041,2.514,2.466,3.15,4.276h-2.283c-0.501-1.175-1.267-2.109-2.297-2.802
			c-1.031-0.694-2.23-1.041-3.597-1.041c-1.369,0-2.505,0.198-3.411,0.593c-0.905,0.395-1.666,0.939-2.282,1.632
			c-1.252,1.407-1.878,3.227-1.878,5.462c0,2.234,0.626,4.055,1.878,5.46C101.624,24.642,103.521,25.383,106.007,25.383z"/>
		<path d="M106.007,25.383v0.602c1.468,0.002,2.8-0.378,3.933-1.142l-0.006,0.004l0.006-0.004c1.125-0.755,1.974-1.793,2.515-3.066
			l-0.553-0.236v0.602h2.283V21.54l-0.568-0.199c-0.602,1.708-1.569,3.016-2.93,3.985l-0.001,0.001
			c-1.456,1.041-3.154,1.562-5.169,1.563c-2.659-0.007-4.717-0.882-6.345-2.663h0.001l0.002,0.003
			c-1.531-1.716-2.298-3.854-2.302-6.533c0.004-2.679,0.771-4.817,2.302-6.534l-0.001,0.002l-0.001,0.002
			c1.628-1.781,3.687-2.656,6.345-2.664c2.014,0.003,3.713,0.524,5.169,1.563l0,0.001h0.001c1.361,0.969,2.328,2.278,2.93,3.985
			l0.568-0.199V13.25h-2.283v0.603l0.553-0.237c-0.541-1.272-1.39-2.31-2.515-3.064c-1.133-0.766-2.465-1.146-3.933-1.144
			c-1.426,0.001-2.643,0.205-3.651,0.643c-0.978,0.427-1.816,1.023-2.492,1.785l0-0.001c-1.363,1.526-2.035,3.519-2.03,5.862
			c-0.004,2.342,0.667,4.336,2.03,5.861l-0.002-0.003l0,0.001c0.717,0.814,1.606,1.429,2.638,1.831
			c1.032,0.404,2.205,0.598,3.507,0.598V25.383v-0.602c-1.184,0-2.203-0.177-3.068-0.515c-0.866-0.34-1.581-0.837-2.174-1.507
			l-0.001-0.001l0-0.001c-1.141-1.287-1.721-2.935-1.726-5.061c0.004-2.126,0.584-3.774,1.726-5.061l0.011-0.014l-0.011,0.013
			c0.557-0.625,1.241-1.117,2.074-1.481c0.802-0.35,1.858-0.542,3.169-0.542c1.266,0.001,2.333,0.315,3.261,0.938
			c0.936,0.631,1.618,1.463,2.079,2.54l0.156,0.365h3.53l-0.282-0.8c-0.669-1.913-1.802-3.458-3.368-4.568l0,0.001l0.001,0.001
			c-1.665-1.194-3.646-1.791-5.87-1.789c-2.928-0.008-5.396,1.024-7.236,3.058h-0.001l-0.002,0.003
			c-1.744,1.944-2.614,4.429-2.61,7.337c-0.004,2.908,0.866,5.393,2.61,7.336l0.001,0.002l0.001,0.002
			c1.839,2.033,4.308,3.064,7.236,3.058c2.224,0.002,4.205-0.593,5.87-1.79l-0.001,0.001v0.001c1.566-1.111,2.699-2.654,3.368-4.567
			l0.281-0.801h-3.529l-0.156,0.366c-0.461,1.077-1.144,1.907-2.08,2.54l0.012-0.008l-0.012,0.007
			c-0.929,0.623-1.995,0.937-3.261,0.938V25.383z"/>
		<path d="M125.771,7.9c2.85,0,5.192,0.954,7.021,2.861c1.793,1.849,2.686,4.161,2.686,6.936c0,2.773-0.893,5.085-2.686,6.934
			c-1.83,1.908-4.171,2.861-7.021,2.861c-2.851,0-5.191-0.954-7.021-2.861c-1.792-1.849-2.688-4.161-2.688-6.934
			c0-2.774,0.896-5.086,2.688-6.936C120.58,8.854,122.92,7.9,125.771,7.9z M125.771,25.383c2.273,0,4.113-0.741,5.519-2.226
			c1.348-1.425,2.023-3.245,2.023-5.46s-0.675-4.036-2.023-5.462c-1.406-1.482-3.246-2.225-5.519-2.225
			c-2.273,0-4.113,0.742-5.519,2.225c-1.348,1.426-2.022,3.247-2.022,5.462s0.674,4.036,2.022,5.46
			C121.658,24.642,123.498,25.383,125.771,25.383z"/>
		<path d="M125.771,7.9v0.603c2.719,0.007,4.863,0.888,6.587,2.676l0.001,0.001l0.001,0.001c1.681,1.743,2.512,3.87,2.518,6.517
			c-0.006,2.646-0.837,4.773-2.518,6.515l-0.002,0.002l0,0c-1.724,1.789-3.868,2.669-6.587,2.676
			c-2.719-0.006-4.862-0.887-6.588-2.676l0,0l-0.001-0.002c-1.681-1.742-2.512-3.87-2.518-6.515
			c0.006-2.647,0.837-4.773,2.518-6.517l0.001-0.001v-0.001c1.726-1.788,3.869-2.669,6.588-2.676V7.9V7.299
			c-2.984-0.007-5.521,1.019-7.456,3.045l0.001-0.001l0.001-0.001c-1.902,1.956-2.863,4.452-2.858,7.354
			c-0.005,2.901,0.956,5.397,2.858,7.353l-0.001-0.001l-0.001-0.001c1.936,2.026,4.472,3.052,7.456,3.046
			c2.983,0.006,5.52-1.02,7.457-3.046l-0.001,0.001l-0.001,0.001c1.901-1.956,2.862-4.452,2.856-7.353
			c0.006-2.903-0.955-5.399-2.856-7.354l0.002,0.002l0,0c-1.937-2.026-4.473-3.052-7.457-3.045V7.9z M125.771,25.383v0.602
			c2.402,0.007,4.439-0.804,5.955-2.413h0.001c1.461-1.538,2.192-3.541,2.188-5.875c0.004-2.335-0.728-4.337-2.188-5.875
			l-0.002-0.003l0,0.002c-1.516-1.608-3.553-2.42-5.955-2.413c-2.402-0.007-4.439,0.805-5.956,2.413v0.001
			c-1.461,1.538-2.193,3.54-2.188,5.875c-0.005,2.334,0.726,4.337,2.188,5.875l0,0c1.517,1.609,3.555,2.42,5.956,2.413V25.383
			v-0.602c-2.146-0.007-3.786-0.679-5.082-2.037l0,0c-1.235-1.313-1.852-2.952-1.858-5.047c0.006-2.096,0.623-3.736,1.859-5.048
			l-0.001,0.001c1.296-1.359,2.937-2.031,5.083-2.037c2.145,0.006,3.786,0.678,5.082,2.037v-0.001
			c1.235,1.312,1.853,2.953,1.858,5.048c-0.006,2.095-0.623,3.734-1.858,5.047l0,0c-1.296,1.358-2.937,2.03-5.082,2.037V25.383z"/>
		<polygon points="157.557,8.132 157.557,27.26 155.389,27.26 155.389,11.426 148.309,20.528 141.113,11.426 141.113,27.26 
			138.947,27.26 138.947,8.132 141.461,8.132 148.309,17.205 155.043,8.132 		"/>
		<polygon points="157.557,8.132 156.955,8.132 156.955,26.659 155.99,26.659 155.99,9.671 148.307,19.553 140.512,9.693 
			140.512,26.659 139.549,26.659 139.549,8.733 141.16,8.733 148.312,18.21 155.346,8.733 157.557,8.733 157.557,8.132 
			156.955,8.132 157.557,8.132 157.557,7.529 154.74,7.529 148.305,16.2 141.762,7.529 138.346,7.529 138.346,27.863 
			141.717,27.863 141.717,13.158 148.312,21.504 154.787,13.181 154.787,27.863 158.158,27.863 158.158,7.529 157.557,7.529 		"/>
		<polygon points="180.846,8.132 180.846,27.26 178.678,27.26 178.678,11.426 171.6,20.528 164.404,11.426 164.404,27.26 
			162.238,27.26 162.238,8.132 164.752,8.132 171.6,17.205 178.332,8.132 		"/>
		<polygon points="180.846,8.132 180.244,8.132 180.244,26.659 179.281,26.659 179.281,9.671 171.596,19.553 163.801,9.693 
			163.801,26.659 162.84,26.659 162.84,8.733 164.453,8.733 171.604,18.21 178.637,8.733 180.846,8.733 180.846,8.132 
			180.244,8.132 180.846,8.132 180.846,7.529 178.029,7.529 171.596,16.2 165.051,7.529 161.635,7.529 161.635,27.863 
			165.006,27.863 165.006,13.158 171.604,21.504 178.076,13.181 178.076,27.863 181.447,27.863 181.447,7.529 180.846,7.529 		"/>
		<path d="M201.564,8.132v10.894c0,2.542-0.756,4.59-2.268,6.14c-1.514,1.551-3.473,2.326-5.881,2.326
			c-2.389,0-4.34-0.775-5.852-2.326c-1.514-1.55-2.268-3.598-2.268-6.14V8.132h2.166v10.952c0,2.061,0.617,3.67,1.85,4.826
			c1.059,0.982,2.428,1.474,4.104,1.474s3.055-0.491,4.131-1.474c1.234-1.136,1.85-2.745,1.85-4.826V8.132H201.564z"/>
		<path d="M201.564,8.132h-0.602v10.894c-0.006,2.428-0.707,4.288-2.098,5.719l0,0c-1.4,1.43-3.168,2.139-5.449,2.145
			c-2.262-0.006-4.018-0.713-5.42-2.144L188,24.748l-0.004-0.003c-1.391-1.432-2.092-3.292-2.098-5.719V8.733h0.963v10.351
			c0,1.091,0.162,2.082,0.502,2.967c0.338,0.885,0.855,1.659,1.537,2.296l0.002,0.002v0.001c1.178,1.097,2.723,1.639,4.514,1.634
			c1.789,0.005,3.342-0.538,4.537-1.63l0.002-0.001l0.002-0.002c0.684-0.629,1.201-1.399,1.541-2.286
			c0.34-0.885,0.502-1.882,0.502-2.982V8.733h1.564V8.132h-0.602H201.564V7.529h-2.77v11.554c0,0.981-0.145,1.829-0.422,2.551
			c-0.279,0.723-0.684,1.325-1.232,1.831v-0.001l0.002-0.001c-0.963,0.873-2.164,1.312-3.727,1.317
			c-1.562-0.005-2.75-0.444-3.693-1.313v0.001h0.002c-0.551-0.516-0.959-1.125-1.236-1.848c-0.277-0.723-0.424-1.566-0.424-2.537
			V7.529h-3.371v11.497c-0.004,2.658,0.807,4.891,2.441,6.56l0,0c1.619,1.672,3.766,2.514,6.281,2.508
			c2.535,0.006,4.689-0.835,6.311-2.508l0,0c1.635-1.669,2.447-3.902,2.441-6.56V7.529h-0.604V8.132z"/>
		<polygon points="222.514,8.132 222.514,27.26 220,27.26 208.184,11.108 208.184,27.26 206.016,27.26 206.016,8.132 208.529,8.132 
			220.348,24.227 220.348,8.132 		"/>
		<polygon points="222.514,8.132 221.91,8.132 221.91,26.659 220.305,26.659 207.58,9.266 207.58,26.659 206.617,26.659 
			206.617,8.733 208.223,8.733 220.949,26.063 220.949,8.733 222.514,8.733 222.514,8.132 221.91,8.132 222.514,8.132 
			222.514,7.529 219.744,7.529 219.744,22.391 208.834,7.529 205.412,7.529 205.412,27.863 208.783,27.863 208.783,12.95 
			219.695,27.863 223.115,27.863 223.115,7.529 222.514,7.529 		"/>
		<rect x="227.195" y="8.132" width="2.168" height="19.128"/>
		<polygon points="229.363,27.26 229.363,26.659 227.797,26.659 227.797,8.733 228.76,8.733 228.76,27.26 229.363,27.26 
			229.363,26.659 229.363,27.26 229.965,27.26 229.965,7.529 226.594,7.529 226.594,27.863 229.965,27.863 229.965,27.26 		"/>
		<polygon points="247.623,10.212 240.949,10.212 240.949,27.26 238.781,27.26 238.781,10.212 232.105,10.212 232.105,8.132 
			247.623,8.132 		"/>
		<polygon points="247.623,10.212 247.623,9.61 240.348,9.61 240.348,26.659 239.385,26.659 239.385,9.61 232.709,9.61 
			232.709,8.733 247.023,8.733 247.023,10.212 247.623,10.212 247.623,9.61 247.623,10.212 248.227,10.212 248.227,7.529 
			231.506,7.529 231.506,10.814 238.18,10.814 238.18,27.863 241.551,27.863 241.551,10.814 248.227,10.814 248.227,10.212 		"/>
		<polygon points="258.201,27.26 256.033,27.26 256.033,19.69 248,8.132 250.629,8.132 257.104,17.436 263.574,8.132 266.203,8.132 
			258.201,19.69 		"/>
		<polygon points="258.201,27.26 258.201,26.659 256.635,26.659 256.635,19.501 249.15,8.733 250.314,8.733 257.104,18.49 
			263.891,8.733 265.055,8.733 257.6,19.501 257.6,27.26 258.201,27.26 258.201,26.659 258.201,27.26 258.801,27.26 258.801,19.878 
			267.354,7.529 263.262,7.529 257.104,16.382 250.943,7.529 246.848,7.529 255.432,19.879 255.432,27.863 258.801,27.863 
			258.801,27.26 		"/>
	</g>
	<g>
		<path d="M106.006,53.206c1.368,0,2.566-0.348,3.598-1.04c1.03-0.693,1.796-1.628,2.296-2.804h2.283
			c-0.635,1.812-1.686,3.237-3.149,4.276c-1.56,1.117-3.4,1.677-5.519,1.677c-2.794,0-5.057-0.953-6.791-2.861
			c-1.638-1.829-2.456-4.141-2.456-6.935c0-2.792,0.818-5.104,2.456-6.936c1.734-1.907,3.997-2.861,6.791-2.861
			c2.119,0,3.959,0.56,5.519,1.677c1.464,1.04,2.514,2.466,3.149,4.276h-2.283c-0.5-1.174-1.267-2.109-2.296-2.803
			c-1.032-0.692-2.23-1.041-3.598-1.041s-2.504,0.199-3.41,0.594c-0.905,0.394-1.667,0.939-2.282,1.633
			c-1.252,1.405-1.878,3.227-1.878,5.46c0,2.234,0.626,4.055,1.878,5.462C101.624,52.465,103.521,53.206,106.006,53.206z"/>
		<path d="M106.006,53.206v0.602c1.469,0.003,2.8-0.379,3.934-1.143l-0.003,0.002l0.003-0.003c1.125-0.754,1.973-1.792,2.515-3.066
			l-0.554-0.235v0.603h2.283v-0.603l-0.568-0.199c-0.602,1.709-1.57,3.017-2.93,3.986h-0.001h-0.001
			c-1.455,1.039-3.154,1.562-5.168,1.563c-2.658-0.007-4.717-0.883-6.345-2.662l0.001,0.001l0.001,0.001
			c-1.53-1.716-2.298-3.854-2.302-6.533c0.004-2.678,0.771-4.817,2.302-6.535l-0.001,0.002l-0.001,0.001
			c1.628-1.78,3.687-2.655,6.345-2.663c2.014,0.002,3.714,0.525,5.169,1.564l0,0.001h0.001c1.36,0.97,2.328,2.278,2.93,3.984
			l0.568-0.199v-0.602h-2.283v0.602l0.554-0.236c-0.542-1.272-1.39-2.31-2.515-3.066c-1.133-0.764-2.465-1.144-3.934-1.143
			c-1.425,0.001-2.642,0.205-3.65,0.643l-0.005,0.002l0.005-0.002c-0.978,0.427-1.816,1.023-2.492,1.785l0.001-0.001l-0.001,0.001
			c-1.363,1.526-2.034,3.518-2.03,5.861c-0.004,2.344,0.667,4.337,2.03,5.861l-0.001-0.001l0-0.002
			c0.717,0.814,1.606,1.431,2.638,1.833c1.032,0.402,2.204,0.597,3.506,0.597V53.206v-0.603c-1.183,0-2.203-0.176-3.068-0.515
			c-0.865-0.339-1.581-0.837-2.173-1.506l0-0.002l-0.001-0.001c-1.141-1.286-1.721-2.934-1.726-5.061
			c0.004-2.125,0.584-3.774,1.726-5.061l0.001-0.002l0,0.002c0.557-0.626,1.24-1.117,2.074-1.481l0,0.001
			c0.802-0.352,1.859-0.543,3.169-0.543c1.267,0.002,2.333,0.315,3.262,0.938c0.935,0.632,1.618,1.462,2.079,2.541l0.156,0.365h3.53
			l-0.282-0.801c-0.669-1.913-1.802-3.458-3.369-4.568l0.002,0.001c-1.666-1.195-3.646-1.791-5.87-1.789
			c-2.928-0.008-5.396,1.024-7.235,3.058l-0.002,0.001l-0.001,0.002c-1.745,1.945-2.614,4.43-2.61,7.337
			c-0.004,2.908,0.865,5.393,2.61,7.336l0.001,0.002l0.002,0.002c1.839,2.034,4.307,3.065,7.235,3.057
			c2.223,0.003,4.204-0.592,5.87-1.787h-0.001l-0.001,0.001c1.567-1.111,2.7-2.655,3.369-4.566l0.282-0.804h-3.53l-0.156,0.367
			c-0.461,1.077-1.144,1.907-2.079,2.539l0.003-0.002l-0.002,0.002c-0.929,0.622-1.996,0.936-3.262,0.938V53.206z"/>
		<polygon points="132.879,35.955 132.879,55.084 130.712,55.084 130.712,46.561 119.586,46.561 119.586,55.084 117.419,55.084 
			117.419,35.955 119.586,35.955 119.586,44.45 130.712,44.45 130.712,35.955 		"/>
		<polygon points="132.879,35.955 132.277,35.955 132.277,54.482 131.313,54.482 131.313,45.958 118.985,45.958 118.985,54.482 
			118.022,54.482 118.022,36.557 118.985,36.557 118.985,45.052 131.313,45.052 131.313,36.557 132.879,36.557 132.879,35.955 
			132.277,35.955 132.879,35.955 132.879,35.353 130.109,35.353 130.109,43.849 120.188,43.849 120.188,35.353 116.818,35.353 
			116.818,55.686 120.188,55.686 120.188,47.162 130.109,47.162 130.109,55.686 133.482,55.686 133.482,35.353 132.879,35.353 		"/>
		<path d="M139.727,55.084h-2.166V35.955h9.16c1.943,0,3.504,0.54,4.68,1.618c1.176,1.06,1.764,2.515,1.764,4.364
			c0,2.389-0.994,4.017-2.979,4.883c-0.559,0.251-1.105,0.434-1.646,0.55l5.029,7.715h-2.572l-4.623-7.34h-6.646V55.084z
			 M139.727,45.693h6.617c2.041,0,3.447-0.635,4.219-1.907c0.289-0.481,0.434-1.099,0.434-1.85c0-1.214-0.414-2.172-1.242-2.875
			c-0.828-0.704-1.928-1.055-3.295-1.055h-6.732V45.693z"/>
		<path d="M139.727,55.084v-0.602h-1.564V36.557h8.559c1.838,0.003,3.223,0.499,4.273,1.459l0.002,0.002v0.002
			c0.523,0.472,0.908,1.018,1.168,1.663c0.262,0.646,0.398,1.392,0.398,2.253c0,1.114-0.23,1.999-0.656,2.699
			c-0.43,0.7-1.061,1.238-1.961,1.633l-0.002,0.002l-0.002,0.001c-0.523,0.234-1.033,0.402-1.527,0.509l-0.857,0.183l4.9,7.52
			h-1.129l-4.623-7.339h-7.582v7.94H139.727v-0.602V55.084h0.602v-6.737h5.713l4.623,7.339h4.016l-5.637-8.645l-0.504,0.328
			l0.125,0.588c0.588-0.125,1.176-0.322,1.77-0.587l-0.002,0.001l-0.004,0.001c1.084-0.472,1.941-1.182,2.506-2.11
			c0.564-0.927,0.832-2.049,0.832-3.325c0-0.988-0.156-1.894-0.484-2.704c-0.328-0.81-0.824-1.52-1.479-2.106l0.002,0.001
			l0.002,0.002c-1.297-1.196-3.033-1.78-5.086-1.777h-9.764v20.333h3.371v-0.602H139.727z M139.727,45.693v0.603h6.617
			c1.084-0.001,2.031-0.168,2.834-0.531c0.803-0.361,1.453-0.929,1.9-1.666v-0.001l0.002-0.002c0.361-0.602,0.518-1.332,0.518-2.159
			c0-0.675-0.117-1.303-0.359-1.868c-0.244-0.565-0.617-1.06-1.094-1.467h-0.002c-0.955-0.813-2.215-1.2-3.684-1.197h-7.336v8.892
			h0.604V45.693h0.602v-7.085h6.131c1.27,0.003,2.203,0.318,2.906,0.912l-0.002-0.001c0.35,0.298,0.598,0.633,0.77,1.028
			c0.168,0.393,0.262,0.851,0.262,1.389c0,0.677-0.131,1.18-0.348,1.54l0.002-0.002l0,0c-0.326,0.533-0.766,0.919-1.367,1.193
			c-0.602,0.274-1.379,0.425-2.338,0.425h-6.617V45.693h0.602H139.727z"/>
		<rect x="156.891" y="35.955" width="2.168" height="19.129"/>
		<polygon points="159.059,55.084 159.059,54.482 157.492,54.482 157.492,36.557 158.457,36.557 158.457,55.084 159.059,55.084 
			159.059,54.482 159.059,55.084 159.658,55.084 159.658,35.353 156.289,35.353 156.289,55.686 159.658,55.686 159.658,55.084 		"/>
		<path d="M165.936,38.887c-0.365,0.318-0.613,0.67-0.736,1.056c-0.125,0.385-0.189,0.794-0.189,1.228
			c0,0.433,0.189,0.834,0.564,1.199c0.375,0.366,0.871,0.675,1.488,0.925c0.615,0.25,1.318,0.472,2.109,0.665
			c0.791,0.192,1.596,0.39,2.412,0.592c0.82,0.203,1.623,0.434,2.412,0.694c0.791,0.258,1.494,0.591,2.111,0.996
			c1.367,0.868,2.053,2.053,2.053,3.555c0,1.792-0.672,3.16-2.01,4.104c-1.338,0.942-3.193,1.415-5.562,1.415
			c-2.678,0-4.721-0.56-6.125-1.677c-1.252-1.001-1.967-2.426-2.141-4.276h2.254c0.076,1.311,0.715,2.312,1.906,3.006
			c1.043,0.598,2.418,0.896,4.135,0.896c3.582,0,5.373-1.126,5.373-3.381c0-0.771-0.324-1.377-0.967-1.82
			c-0.645-0.442-1.455-0.81-2.428-1.098c-0.973-0.29-2.021-0.56-3.148-0.81c-1.129-0.25-2.178-0.573-3.148-0.968
			c-0.977-0.396-1.783-0.915-2.43-1.561c-0.646-0.644-0.969-1.516-0.969-2.615c0-1.56,0.598-2.831,1.791-3.814
			c1.195-0.982,2.996-1.475,5.406-1.475c2.426,0,4.303,0.56,5.635,1.677c1.213,0.982,1.857,2.244,1.934,3.786h-2.223
			c-0.193-1.58-1.215-2.629-3.064-3.151c-0.654-0.192-1.469-0.289-2.441-0.289c-0.971,0-1.793,0.112-2.457,0.333
			C166.816,38.3,166.301,38.57,165.936,38.887z"/>
		<path d="M165.936,38.887l-0.395-0.454c-0.43,0.373-0.752,0.817-0.914,1.323l-0.002,0.004l0.002-0.005
			c-0.148,0.45-0.217,0.923-0.217,1.415c-0.006,0.615,0.281,1.189,0.744,1.629v0.001c0.445,0.433,1.008,0.779,1.682,1.052v-0.001
			c0.648,0.264,1.379,0.493,2.193,0.692l0,0c0.787,0.192,1.594,0.39,2.41,0.591c0.805,0.199,1.594,0.426,2.369,0.683l0,0
			c0.746,0.245,1.402,0.555,1.969,0.926l0.004,0.003l0.004,0.003c0.617,0.394,1.051,0.835,1.34,1.332
			c0.283,0.495,0.43,1.054,0.432,1.714c-0.002,0.822-0.152,1.516-0.439,2.106c-0.293,0.588-0.717,1.084-1.312,1.505
			c-1.199,0.847-2.926,1.307-5.217,1.306c-2.6,0.001-4.498-0.546-5.752-1.545l0,0c-1.113-0.896-1.744-2.133-1.912-3.861
			l-0.602,0.056v0.603h2.254v-0.603l-0.602,0.037c0.045,0.741,0.252,1.428,0.631,2.02c0.373,0.593,0.91,1.084,1.576,1.47
			l0.002,0.001v0.001c1.168,0.669,2.648,0.975,4.434,0.975c1.854-0.003,3.297-0.281,4.352-0.938
			c0.521-0.328,0.943-0.763,1.219-1.283c0.277-0.522,0.408-1.119,0.406-1.762c0.002-0.469-0.102-0.919-0.312-1.315
			c-0.211-0.398-0.529-0.735-0.916-1.002l-0.002-0.001c-0.711-0.486-1.576-0.874-2.596-1.177l0.008,0.002l-0.008-0.002
			c-0.986-0.294-2.051-0.567-3.189-0.82c-1.1-0.243-2.115-0.558-3.055-0.938l0,0c-0.912-0.37-1.648-0.846-2.229-1.428V43.2
			c-0.518-0.522-0.787-1.204-0.793-2.188c0.002-0.704,0.133-1.318,0.393-1.868c0.256-0.549,0.643-1.04,1.182-1.481l0.002-0.001
			c1.029-0.854,2.688-1.338,5.02-1.337c2.34,0.001,4.059,0.538,5.246,1.536l0.004,0.003l0.006,0.003
			c0.549,0.445,0.955,0.939,1.236,1.491c0.279,0.551,0.439,1.163,0.477,1.858l0.6-0.03v-0.603h-2.223v0.603l0.596-0.072
			c-0.105-0.901-0.471-1.701-1.074-2.321c-0.605-0.621-1.426-1.057-2.424-1.337l-0.162,0.579l0.17-0.577
			c-0.734-0.214-1.598-0.312-2.611-0.312c-1.018,0-1.898,0.114-2.645,0.363l0.002-0.001l-0.004,0.001
			c-0.713,0.238-1.299,0.535-1.75,0.925L165.936,38.887l0.393,0.455c0.283-0.244,0.729-0.488,1.344-0.691V38.65l-0.002,0.001
			c0.582-0.194,1.34-0.303,2.268-0.302c0.932-0.001,1.695,0.094,2.273,0.263l0.002,0.002l0.004,0.001
			c0.854,0.24,1.465,0.588,1.885,1.018c0.412,0.432,0.658,0.946,0.742,1.626l0.066,0.528h3.391l-0.031-0.631
			c-0.043-0.846-0.244-1.635-0.609-2.346c-0.361-0.712-0.885-1.341-1.549-1.878l-0.379,0.468l0.387-0.461
			c-1.473-1.237-3.508-1.818-6.021-1.817c-2.484,0.001-4.432,0.501-5.787,1.611v-0.001c-0.658,0.541-1.168,1.178-1.508,1.899
			c-0.336,0.722-0.504,1.524-0.504,2.38c-0.004,1.21,0.369,2.274,1.145,3.041l0.016,0.014l-0.016-0.014
			c0.707,0.71,1.592,1.272,2.629,1.693v-0.001c1.004,0.409,2.086,0.741,3.244,0.998c1.113,0.248,2.15,0.516,3.107,0.799
			l-0.008-0.003l0.008,0.003c0.928,0.275,1.68,0.619,2.258,1.019l0,0c0.258,0.176,0.424,0.364,0.537,0.573
			c0.107,0.209,0.17,0.447,0.17,0.75c0,0.484-0.094,0.873-0.264,1.197c-0.26,0.481-0.701,0.86-1.445,1.145
			c-0.74,0.28-1.768,0.438-3.062,0.437c-1.648,0.001-2.92-0.288-3.832-0.814h0.002v0.001c-0.529-0.308-0.906-0.664-1.166-1.073
			s-0.408-0.879-0.443-1.447l-0.033-0.567h-3.482l0.062,0.658c0.18,1.972,0.971,3.585,2.361,4.691l0.004,0.002l-0.002-0.001
			c1.557,1.235,3.742,1.806,6.5,1.806c2.445,0,4.428-0.483,5.908-1.524c0.744-0.522,1.322-1.183,1.701-1.961
			c0.381-0.777,0.564-1.664,0.564-2.635c0-0.842-0.197-1.629-0.596-2.315c-0.396-0.689-0.988-1.272-1.736-1.748l-0.322,0.508
			l0.33-0.502c-0.666-0.438-1.42-0.792-2.254-1.066h0.002c-0.805-0.264-1.625-0.5-2.457-0.706c-0.818-0.203-1.623-0.4-2.414-0.593
			l0,0c-0.768-0.187-1.443-0.401-2.023-0.637l-0.004-0.002l0.002,0.001c-0.562-0.228-0.986-0.498-1.297-0.798h0.002
			c-0.289-0.291-0.375-0.515-0.381-0.768c0-0.375,0.053-0.719,0.158-1.042l0.002-0.003l-0.002,0.002
			c0.086-0.264,0.256-0.523,0.557-0.786L165.936,38.887z"/>
		<polygon points="194.918,38.035 188.242,38.035 188.242,55.084 186.076,55.084 186.076,38.035 179.4,38.035 179.4,35.955 
			194.918,35.955 		"/>
		<polygon points="194.918,38.035 194.918,37.434 187.641,37.434 187.641,54.482 186.678,54.482 186.678,37.434 180,37.434 
			180,36.557 194.316,36.557 194.316,38.035 194.918,38.035 194.918,37.434 194.918,38.035 195.521,38.035 195.521,35.353 
			178.799,35.353 178.799,38.637 185.475,38.637 185.475,55.686 188.844,55.686 188.844,38.637 195.521,38.637 195.521,38.035 		"/>
		<rect x="197.664" y="35.955" width="2.166" height="19.129"/>
		<polygon points="199.83,55.084 199.83,54.482 198.264,54.482 198.264,36.557 199.227,36.557 199.227,55.084 199.83,55.084 
			199.83,54.482 199.83,55.084 200.43,55.084 200.43,35.353 197.061,35.353 197.061,55.686 200.43,55.686 200.43,55.084 		"/>
		<path d="M221.213,55.084h-2.398l-2.34-5.547h-9.479l-2.34,5.547h-2.398l8.119-19.129h2.715L221.213,55.084z M215.635,47.542
			l-3.9-9.333l-3.9,9.333H215.635z"/>
		<path d="M221.213,55.084v-0.602h-1.998l-2.342-5.548h-10.277l-2.34,5.548h-1.088l7.607-17.925h1.92l7.961,18.762L221.213,55.084
			v-0.602V55.084l0.553-0.235l-8.273-19.496h-3.514l-8.629,20.333h3.705l2.34-5.546h8.68l2.34,5.546h3.707l-0.355-0.837
			L221.213,55.084z M215.635,47.542l0.557-0.231l-4.457-10.663l-4.805,11.497h9.611l-0.35-0.834L215.635,47.542V46.94h-6.898
			l2.998-7.17l3.346,8.003L215.635,47.542V46.94V47.542z"/>
		<polygon points="240.137,35.955 240.137,55.084 237.623,55.084 225.805,38.931 225.805,55.084 223.639,55.084 223.639,35.955 
			226.154,35.955 237.971,52.051 237.971,35.955 		"/>
		<polygon points="240.137,35.955 239.537,35.955 239.537,54.482 237.93,54.482 225.205,37.089 225.205,54.482 224.24,54.482 
			224.24,36.557 225.85,36.557 238.574,53.888 238.574,36.557 240.137,36.557 240.137,35.955 239.537,35.955 240.137,35.955 
			240.137,35.353 237.371,35.353 237.371,50.213 226.457,35.353 223.037,35.353 223.037,55.686 226.408,55.686 226.408,40.774 
			237.318,55.686 240.74,55.686 240.74,35.353 240.137,35.353 		"/>
	</g>
	<g>
		<path d="M106.006,81.028c1.367,0,2.566-0.348,3.598-1.04c1.03-0.694,1.795-1.628,2.297-2.803h2.283
			c-0.636,1.81-1.687,3.236-3.15,4.275c-1.56,1.118-3.399,1.676-5.519,1.676c-2.793,0-5.057-0.953-6.791-2.859
			c-1.638-1.83-2.456-4.143-2.456-6.935c0-2.794,0.818-5.105,2.456-6.936c1.734-1.908,3.997-2.861,6.791-2.861
			c2.119,0,3.958,0.56,5.519,1.677c1.464,1.04,2.515,2.465,3.15,4.276h-2.283c-0.501-1.175-1.267-2.11-2.297-2.804
			c-1.032-0.692-2.231-1.04-3.598-1.04c-1.368,0-2.504,0.197-3.41,0.593c-0.906,0.396-1.667,0.938-2.283,1.632
			c-1.252,1.407-1.878,3.228-1.878,5.463c0,2.233,0.626,4.055,1.878,5.46C101.624,80.287,103.521,81.028,106.006,81.028z"/>
		<path d="M106.006,81.028v0.602c1.468,0.002,2.8-0.378,3.934-1.142l0,0c1.125-0.757,1.974-1.793,2.515-3.066l-0.554-0.236v0.601
			h2.283v-0.601l-0.568-0.199c-0.602,1.708-1.569,3.015-2.93,3.983l-0.001,0.002l0,0c-1.456,1.04-3.154,1.562-5.169,1.564
			c-2.659-0.008-4.717-0.885-6.344-2.665l0,0.002l0.002,0.002c-1.531-1.717-2.298-3.855-2.303-6.532
			c0.004-2.679,0.771-4.818,2.303-6.534l-0.002,0.002l0,0.001c1.627-1.781,3.685-2.655,6.344-2.663
			c2.015,0.001,3.713,0.524,5.169,1.563h0.001c1.361,0.969,2.329,2.278,2.93,3.985l0.568-0.198v-0.603h-2.283v0.603l0.554-0.236
			c-0.542-1.272-1.39-2.312-2.515-3.066c-1.133-0.765-2.465-1.145-3.934-1.143c-1.425,0.001-2.643,0.204-3.65,0.642l-0.015,0.007
			l0.014-0.006c-0.977,0.426-1.815,1.022-2.491,1.784l-0.008,0.009l0.008-0.009c-1.363,1.526-2.034,3.518-2.031,5.862
			c-0.003,2.344,0.668,4.336,2.031,5.859L99.862,79.2l0,0.001c0.717,0.814,1.606,1.429,2.638,1.831
			c1.032,0.404,2.204,0.598,3.506,0.598V81.028v-0.602c-1.184,0-2.203-0.178-3.067-0.515c-0.866-0.341-1.581-0.838-2.173-1.508
			l-0.002-0.002c-1.141-1.285-1.722-2.935-1.725-5.06c0.003-2.126,0.584-3.775,1.725-5.062l0.008-0.009l-0.008,0.009
			c0.558-0.626,1.241-1.116,2.075-1.48l0.014-0.006l-0.014,0.007c0.802-0.353,1.858-0.544,3.169-0.543
			c1.267,0.002,2.333,0.315,3.262,0.938c0.936,0.632,1.618,1.464,2.08,2.54l0.156,0.366h3.529l-0.281-0.803
			c-0.669-1.912-1.802-3.455-3.369-4.567l0.001,0.001c-1.665-1.194-3.646-1.791-5.869-1.788c-2.928-0.009-5.396,1.023-7.236,3.058
			l0,0.001l-0.002,0.003c-1.744,1.942-2.613,4.429-2.609,7.337c-0.003,2.908,0.866,5.392,2.609,7.336l0.002,0.002l0,0.001
			c1.84,2.033,4.309,3.065,7.236,3.058c2.224,0.003,4.204-0.593,5.869-1.788l-0.001,0.001c1.567-1.11,2.7-2.654,3.369-4.568
			l0.281-0.801h-3.529l-0.156,0.365c-0.461,1.078-1.144,1.909-2.08,2.54h0c-0.929,0.623-1.996,0.937-3.262,0.938V81.028z"/>
		<polygon points="132.878,63.776 132.878,82.905 130.712,82.905 130.712,74.382 119.586,74.382 119.586,82.905 117.419,82.905 
			117.419,63.776 119.586,63.776 119.586,72.273 130.712,72.273 130.712,63.776 		"/>
		<polygon points="132.878,63.776 132.276,63.776 132.276,82.304 131.313,82.304 131.313,73.779 118.985,73.779 118.985,82.304 
			118.021,82.304 118.021,64.379 118.985,64.379 118.985,72.874 131.313,72.874 131.313,64.379 132.878,64.379 132.878,63.776 
			132.276,63.776 132.878,63.776 132.878,63.175 130.11,63.175 130.11,71.671 120.188,71.671 120.188,63.175 116.818,63.175 
			116.818,83.509 120.188,83.509 120.188,74.983 130.11,74.983 130.11,83.509 133.48,83.509 133.48,63.175 132.878,63.175 		"/>
		<path d="M153.598,63.776v10.896c0,2.542-0.756,4.59-2.268,6.139c-1.514,1.553-3.475,2.326-5.881,2.326
			c-2.389,0-4.34-0.773-5.852-2.326c-1.512-1.549-2.27-3.597-2.27-6.139V63.776h2.168v10.952c0,2.062,0.617,3.67,1.85,4.826
			c1.059,0.982,2.426,1.474,4.104,1.474c1.676,0,3.053-0.491,4.131-1.474c1.232-1.137,1.852-2.746,1.852-4.826V63.776H153.598z"/>
		<path d="M153.598,63.776h-0.604v10.896c-0.004,2.427-0.707,4.287-2.096,5.719l-0.061,0.062l0.061-0.062
			c-1.402,1.431-3.168,2.139-5.449,2.146c-2.264-0.007-4.02-0.714-5.422-2.145v-0.001c-1.391-1.432-2.092-3.292-2.098-5.719V64.379
			h0.965v10.35c0,1.091,0.162,2.084,0.502,2.968c0.338,0.885,0.855,1.658,1.537,2.297l0.002,0.002
			c1.176,1.097,2.723,1.639,4.514,1.635c1.791,0.004,3.344-0.538,4.535-1.63l0.004-0.003c0.684-0.629,1.203-1.4,1.541-2.286
			c0.34-0.886,0.502-1.883,0.502-2.982v-10.35h1.566V63.776h-0.604H153.598v-0.602h-2.77v11.554c0,0.98-0.146,1.828-0.422,2.553
			c-0.279,0.722-0.688,1.324-1.234,1.83l0.006-0.004l-0.002,0.002c-0.967,0.873-2.166,1.312-3.727,1.317
			c-1.562-0.005-2.752-0.444-3.695-1.313l0.004,0.003l0,0c-0.553-0.518-0.959-1.127-1.238-1.85
			c-0.275-0.725-0.422-1.567-0.422-2.538V63.175h-3.371v11.497c-0.004,2.657,0.807,4.891,2.439,6.559l0,0
			c1.621,1.673,3.768,2.516,6.283,2.509c2.533,0.007,4.688-0.835,6.312-2.509l0.059-0.062l-0.059,0.062
			c1.633-1.668,2.441-3.9,2.438-6.559V63.175h-0.602V63.776z"/>
		<path d="M160.215,82.905h-2.168V63.776h9.16c1.945,0,3.506,0.54,4.68,1.619c1.178,1.059,1.766,2.514,1.766,4.363
			c0,2.389-0.994,4.017-2.979,4.883c-0.559,0.251-1.107,0.434-1.646,0.55l5.027,7.714h-2.572l-4.623-7.339h-6.645V82.905z
			 M160.215,73.516h6.617c2.041,0,3.447-0.637,4.219-1.907c0.287-0.481,0.432-1.098,0.432-1.85c0-1.214-0.414-2.171-1.242-2.875
			c-0.828-0.703-1.926-1.055-3.293-1.055h-6.732V73.516z"/>
		<path d="M160.215,82.905v-0.602h-1.566V64.379h8.559c1.84,0.004,3.221,0.499,4.273,1.46l0.002,0.002l0.002,0.003
			c0.523,0.471,0.906,1.018,1.168,1.663c0.26,0.645,0.396,1.391,0.396,2.252c-0.002,1.112-0.23,1.999-0.654,2.698
			c-0.43,0.7-1.061,1.238-1.961,1.634l-0.004,0.001l-0.002,0.001c-0.523,0.235-1.033,0.404-1.527,0.509l-0.855,0.184l4.9,7.519
			h-1.129l-4.625-7.34h-7.578v7.941H160.215v-0.602V82.905h0.602v-6.736h5.711l4.623,7.34h4.016l-5.635-8.646l-0.504,0.329
			l0.127,0.588c0.584-0.125,1.172-0.322,1.766-0.587l-0.002,0.001l-0.004,0.002c1.086-0.473,1.941-1.183,2.506-2.11
			c0.566-0.927,0.832-2.05,0.832-3.326c0-0.988-0.156-1.894-0.484-2.702c-0.326-0.812-0.824-1.521-1.477-2.108l0.002,0.002
			l0.004,0.002c-1.301-1.196-3.037-1.78-5.09-1.777h-9.762v20.334h3.371v-0.604H160.215z M160.215,73.516v0.602h6.617
			c1.082,0,2.029-0.167,2.834-0.53c0.803-0.36,1.453-0.928,1.898-1.666l0.002-0.003c0.361-0.603,0.518-1.333,0.518-2.159
			c0-0.675-0.115-1.304-0.359-1.868c-0.242-0.563-0.615-1.06-1.092-1.465l-0.002-0.001c-0.957-0.814-2.217-1.201-3.684-1.198h-7.334
			v8.891h0.602V73.516h0.602v-7.085h6.131c1.27,0.002,2.203,0.32,2.906,0.913v-0.001c0.348,0.297,0.596,0.633,0.768,1.026
			c0.17,0.394,0.26,0.852,0.26,1.39c0,0.677-0.131,1.179-0.348,1.54l0.002-0.003l0,0c-0.324,0.534-0.764,0.919-1.367,1.194
			c-0.602,0.273-1.377,0.423-2.336,0.423h-6.617V73.516h0.602H160.215z"/>
		<path d="M185.902,81.028c1.367,0,2.566-0.348,3.598-1.04c1.029-0.694,1.795-1.628,2.297-2.803h2.283
			c-0.637,1.81-1.686,3.236-3.148,4.275c-1.562,1.118-3.402,1.676-5.52,1.676c-2.795,0-5.059-0.953-6.791-2.859
			c-1.637-1.83-2.459-4.143-2.459-6.935c0-2.794,0.822-5.105,2.459-6.936c1.732-1.908,3.996-2.861,6.791-2.861
			c2.117,0,3.957,0.56,5.52,1.677c1.463,1.04,2.512,2.465,3.148,4.276h-2.283c-0.502-1.175-1.268-2.11-2.297-2.804
			c-1.031-0.692-2.23-1.04-3.598-1.04c-1.369,0-2.504,0.197-3.41,0.593s-1.666,0.938-2.283,1.632
			c-1.252,1.407-1.879,3.228-1.879,5.463c0,2.233,0.627,4.055,1.879,5.46C181.52,80.287,183.418,81.028,185.902,81.028z"/>
		<path d="M185.902,81.028v0.602c1.467,0.002,2.801-0.378,3.932-1.142l0.021-0.016l-0.02,0.016c1.125-0.756,1.975-1.793,2.516-3.066
			l-0.555-0.236v0.601h2.283v-0.601l-0.568-0.199c-0.602,1.709-1.57,3.015-2.93,3.983l-0.004,0.004l0.002-0.002
			c-1.455,1.04-3.154,1.562-5.168,1.564c-2.66-0.008-4.719-0.885-6.346-2.665v0.002l0.004,0.002
			c-1.533-1.717-2.301-3.855-2.305-6.532c0.004-2.679,0.771-4.818,2.305-6.535l-0.002,0.003l-0.002,0.001
			c1.627-1.781,3.686-2.655,6.346-2.663c2.014,0.001,3.713,0.524,5.168,1.563h0.002c1.359,0.969,2.328,2.278,2.93,3.985l0.568-0.198
			v-0.603h-2.283v0.603l0.555-0.235c-0.541-1.273-1.391-2.312-2.518-3.067h0.002c-1.133-0.765-2.467-1.145-3.934-1.143
			c-1.426,0.001-2.643,0.204-3.65,0.642c-0.979,0.427-1.816,1.023-2.494,1.786V67.48c-1.359,1.526-2.031,3.519-2.027,5.862
			c-0.004,2.343,0.668,4.336,2.027,5.859l-0.004-0.005l0.004,0.004c0.717,0.814,1.607,1.429,2.637,1.831
			c1.033,0.404,2.205,0.598,3.508,0.598V81.028v-0.602c-1.186,0-2.203-0.178-3.068-0.515c-0.865-0.341-1.58-0.838-2.174-1.508
			l-0.002-0.002c-1.141-1.285-1.721-2.935-1.725-5.06c0.004-2.127,0.584-3.775,1.725-5.062h0.002c0.557-0.626,1.24-1.116,2.074-1.48
			c0.803-0.352,1.857-0.543,3.168-0.542c1.268,0.002,2.332,0.315,3.262,0.938l0,0c0.936,0.632,1.617,1.464,2.078,2.539l0.156,0.367
			h3.529l-0.279-0.803c-0.67-1.912-1.803-3.455-3.369-4.567l0.002,0.001c-1.666-1.194-3.646-1.791-5.869-1.788
			c-2.93-0.009-5.398,1.023-7.236,3.058l-0.002,0.001l-0.002,0.004c-1.744,1.941-2.613,4.428-2.609,7.336
			c-0.004,2.908,0.865,5.392,2.609,7.336l0.002,0.001l0.002,0.002c1.838,2.033,4.307,3.065,7.236,3.058
			c2.223,0.003,4.203-0.593,5.869-1.788l-0.002,0.001c1.566-1.11,2.699-2.655,3.369-4.568l0.279-0.801h-3.529l-0.156,0.365
			c-0.461,1.078-1.143,1.908-2.078,2.54l0,0c-0.93,0.623-1.994,0.937-3.262,0.938V81.028z"/>
		<polygon points="212.775,63.776 212.775,82.905 210.607,82.905 210.607,74.382 199.482,74.382 199.482,82.905 197.316,82.905 
			197.316,63.776 199.482,63.776 199.482,72.273 210.607,72.273 210.607,63.776 		"/>
		<polygon points="212.775,63.776 212.174,63.776 212.174,82.304 211.211,82.304 211.211,73.779 198.881,73.779 198.881,82.304 
			197.918,82.304 197.918,64.379 198.881,64.379 198.881,72.874 211.211,72.874 211.211,64.379 212.775,64.379 212.775,63.776 
			212.174,63.776 212.775,63.776 212.775,63.175 210.006,63.175 210.006,71.671 200.086,71.671 200.086,63.175 196.715,63.175 
			196.715,83.509 200.086,83.509 200.086,74.983 210.006,74.983 210.006,83.509 213.379,83.509 213.379,63.175 212.775,63.175 		"/>
	</g>
</g>
</svg>
